<?xml version="1.0" encoding="utf-8"?>
<!-- Generator: Adobe Illustrator 16.0.0, SVG Export Plug-In . SVG Version: 6.00 Build 0)  -->
<!DOCTYPE svg PUBLIC "-//W3C//DTD SVG 1.1//EN" "http://www.w3.org/Graphics/SVG/1.1/DTD/svg11.dtd">
<svg version="1.1" xmlns="http://www.w3.org/2000/svg" xmlns:xlink="http://www.w3.org/1999/xlink" x="0px" y="0px" width="29.52px"
	 height="29.76px" viewBox="0 0 29.52 29.76" enable-background="new 0 0 29.52 29.76" xml:space="preserve">
<g id="People_matter_to_us._copy_1_" enable-background="new    ">
	<g id="People_matter_to_us._copy">
		<g>
			<path fill="#4D9258" d="M2.34,25.635H1.672v1.54h0.355v-0.44H2.34c0.4,0,0.63-0.206,0.63-0.565
				C2.97,25.828,2.74,25.635,2.34,25.635z M2.322,26.444H2.027v-0.521h0.295c0.198,0,0.31,0.086,0.31,0.258
				C2.632,26.356,2.52,26.444,2.322,26.444z M3.889,25.979c-0.369,0-0.623,0.242-0.623,0.607c0,0.359,0.245,0.602,0.632,0.602
				c0.218,0,0.396-0.077,0.517-0.209l-0.182-0.181c-0.083,0.081-0.191,0.125-0.306,0.125c-0.155,0-0.272-0.088-0.312-0.237h0.868
				C4.512,26.255,4.314,25.979,3.889,25.979z M3.608,26.486c0.027-0.156,0.13-0.258,0.283-0.258c0.16,0,0.263,0.102,0.268,0.258
				H3.608z M5.438,25.979c-0.389,0-0.65,0.24-0.65,0.604c0,0.361,0.261,0.605,0.65,0.605c0.387,0,0.648-0.244,0.648-0.605
				C6.086,26.22,5.825,25.979,5.438,25.979z M5.438,26.913c-0.18,0-0.301-0.132-0.301-0.326c0-0.193,0.122-0.325,0.301-0.325
				c0.178,0,0.301,0.132,0.301,0.325C5.739,26.781,5.616,26.913,5.438,26.913z M7.234,25.979c-0.164,0-0.297,0.066-0.382,0.186
				v-0.174H6.506v1.61h0.346v-0.599c0.088,0.119,0.22,0.186,0.389,0.186c0.339,0,0.562-0.24,0.562-0.599
				C7.803,26.225,7.574,25.979,7.234,25.979z M7.153,26.906c-0.178,0-0.301-0.132-0.301-0.328c0-0.19,0.124-0.325,0.301-0.325
				s0.299,0.137,0.299,0.325C7.453,26.772,7.331,26.906,7.153,26.906z M8.224,27.175H8.57v-1.633H8.224V27.175z M9.615,25.979
				c-0.369,0-0.623,0.242-0.623,0.607c0,0.359,0.245,0.602,0.632,0.602c0.218,0,0.396-0.077,0.518-0.209l-0.182-0.181
				c-0.083,0.081-0.191,0.125-0.306,0.125c-0.155,0-0.272-0.088-0.312-0.237h0.868C10.238,26.255,10.04,25.979,9.615,25.979z
				 M9.334,26.486c0.027-0.156,0.13-0.258,0.284-0.258c0.16,0,0.263,0.102,0.268,0.258H9.334z M12.94,25.978
				c-0.205,0.002-0.357,0.091-0.436,0.273c-0.059-0.172-0.205-0.273-0.409-0.273c-0.182,0.002-0.324,0.073-0.41,0.218v-0.204h-0.346
				v1.184h0.346V26.59c0-0.172,0.102-0.3,0.27-0.302c0.142,0,0.232,0.09,0.232,0.242v0.645h0.344V26.59
				c0-0.172,0.102-0.3,0.268-0.302c0.144,0,0.234,0.09,0.234,0.242v0.645h0.344v-0.744C13.377,26.153,13.208,25.978,12.94,25.978z
				 M14.381,25.978c-0.211,0-0.366,0.049-0.546,0.137l0.108,0.233c0.126-0.068,0.252-0.104,0.36-0.104
				c0.167,0,0.252,0.072,0.252,0.198v0.021h-0.333c-0.297,0.003-0.461,0.135-0.461,0.356c0,0.216,0.158,0.37,0.416,0.37
				c0.169,0,0.299-0.055,0.38-0.154v0.139h0.339l-0.002-0.772C14.892,26.136,14.706,25.978,14.381,25.978z M14.555,26.77
				c-0.021,0.102-0.135,0.179-0.281,0.179c-0.117,0-0.189-0.06-0.189-0.149c0-0.095,0.065-0.135,0.198-0.135h0.272V26.77z
				 M15.89,26.904c-0.074,0.002-0.116-0.037-0.116-0.137v-0.488h0.328v-0.235h-0.328v-0.326h-0.345v0.326H15.26v0.233h0.169v0.548
				c0,0.244,0.164,0.365,0.38,0.365c0.113,0,0.226-0.031,0.315-0.081l-0.072-0.249C15.989,26.889,15.935,26.904,15.89,26.904z
				 M17.027,26.904c-0.074,0.002-0.116-0.037-0.116-0.137v-0.488h0.328v-0.235h-0.328v-0.326h-0.345v0.326h-0.169v0.233h0.169v0.548
				c0,0.244,0.164,0.365,0.38,0.365c0.112,0,0.226-0.031,0.315-0.081l-0.072-0.249C17.127,26.889,17.072,26.904,17.027,26.904z
				 M18.161,25.979c-0.369,0-0.623,0.242-0.623,0.607c0,0.359,0.245,0.602,0.632,0.602c0.218,0,0.396-0.077,0.518-0.209
				l-0.183-0.181c-0.083,0.081-0.191,0.125-0.306,0.125c-0.155,0-0.272-0.088-0.312-0.237h0.868
				C18.784,26.255,18.586,25.979,18.161,25.979z M17.88,26.486c0.026-0.156,0.13-0.258,0.283-0.258c0.159,0,0.263,0.102,0.268,0.258
				H17.88z M19.51,26.204v-0.213h-0.347v1.184h0.347v-0.57c0-0.199,0.152-0.329,0.4-0.308v-0.319
				C19.73,25.979,19.593,26.06,19.51,26.204z M21.515,26.904c-0.074,0.002-0.116-0.037-0.116-0.137v-0.488h0.328v-0.235h-0.328
				v-0.326h-0.345v0.326h-0.168v0.233h0.168v0.548c0,0.244,0.164,0.365,0.38,0.365c0.113,0,0.226-0.031,0.315-0.081l-0.072-0.249
				C21.614,26.889,21.56,26.904,21.515,26.904z M22.675,25.979c-0.389,0-0.649,0.24-0.649,0.604c0,0.361,0.261,0.605,0.649,0.605
				c0.388,0,0.648-0.244,0.648-0.605C23.323,26.22,23.062,25.979,22.675,25.979z M22.675,26.913c-0.18,0-0.301-0.132-0.301-0.326
				c0-0.193,0.121-0.325,0.301-0.325c0.178,0,0.302,0.132,0.302,0.325C22.977,26.781,22.853,26.913,22.675,26.913z M25.259,26.576
				c0,0.172-0.102,0.3-0.268,0.302c-0.14,0-0.228-0.091-0.228-0.24v-0.646h-0.347v0.743c0,0.28,0.169,0.454,0.437,0.454
				c0.183,0,0.321-0.073,0.405-0.223v0.209h0.344v-1.184h-0.344V26.576z M26.371,26.312c0-0.062,0.059-0.088,0.14-0.088
				c0.102,0,0.236,0.041,0.368,0.114l0.12-0.231c-0.136-0.083-0.307-0.132-0.473-0.132c-0.263,0-0.477,0.125-0.477,0.37
				c0,0.416,0.627,0.314,0.627,0.504c0,0.063-0.064,0.092-0.152,0.092c-0.133,0-0.295-0.053-0.421-0.147l-0.112,0.229
				c0.137,0.107,0.328,0.165,0.524,0.165c0.273,0,0.492-0.128,0.492-0.37C27.01,26.4,26.371,26.49,26.371,26.312z M27.516,26.845
				c-0.099,0-0.174,0.07-0.174,0.174c0,0.102,0.075,0.177,0.174,0.177c0.102,0,0.173-0.075,0.173-0.177
				C27.688,26.915,27.617,26.845,27.516,26.845z"/>
		</g>
	</g>
</g>
<g id="ABC_Co._copy_1_" enable-background="new    ">
	<g id="ABC_Co._copy">
		<g>
			<path fill="#4D9258" d="M2.163,19.297L0.24,23.752h1.546l0.234-0.629h1.708l0.228,0.629H5.56l-1.851-4.455H2.163z M2.41,22.068
				l0.48-1.304l0.468,1.304H2.41z M9.684,21.375c0.468-0.14,0.766-0.515,0.766-0.953c0-0.681-0.708-1.125-1.805-1.125H6.339v4.455
				h2.417c1.11,0,1.832-0.489,1.832-1.252C10.587,21.94,10.229,21.496,9.684,21.375z M7.839,20.377h0.721
				c0.208,0,0.344,0.121,0.344,0.312c0,0.197-0.137,0.324-0.344,0.324H7.839V20.377z M8.561,22.672H7.839v-0.68h0.721
				c0.279,0,0.461,0.127,0.461,0.323C9.021,22.532,8.84,22.672,8.561,22.672z M13.821,20.479c0.351,0,0.76,0.235,1.032,0.598
				l0.871-1.011c-0.468-0.495-1.228-0.813-1.923-0.813c-1.429,0-2.468,0.954-2.468,2.263c0,1.329,1.013,2.301,2.41,2.301
				c0.702,0,1.475-0.349,1.981-0.89l-0.871-0.909c-0.298,0.312-0.708,0.509-1.032,0.509c-0.545,0-0.942-0.432-0.942-1.029
				C12.879,20.904,13.276,20.479,13.821,20.479z M20.687,20.479c0.351,0,0.76,0.235,1.032,0.598l0.871-1.011
				c-0.468-0.495-1.228-0.813-1.923-0.813c-1.429,0-2.468,0.954-2.468,2.263c0,1.329,1.013,2.301,2.409,2.301
				c0.701,0,1.475-0.349,1.981-0.89l-0.871-0.909c-0.299,0.312-0.708,0.509-1.032,0.509c-0.546,0-0.942-0.432-0.942-1.029
				C19.744,20.904,20.141,20.479,20.687,20.479z M25.129,20.225c-1.221,0-2.007,0.699-2.007,1.786s0.786,1.793,2.007,1.793
				s2.007-0.706,2.007-1.793S26.35,20.225,25.129,20.225z M25.129,22.703c-0.325,0-0.532-0.267-0.532-0.673
				c0-0.407,0.207-0.674,0.532-0.674c0.324,0,0.532,0.267,0.532,0.674C25.661,22.437,25.453,22.703,25.129,22.703z M28.61,22.5
				c-0.39,0-0.663,0.267-0.663,0.648c0,0.388,0.273,0.655,0.663,0.655c0.396,0,0.669-0.268,0.669-0.655
				C29.279,22.767,29.006,22.5,28.61,22.5z"/>
		</g>
	</g>
</g>
<g id="logo_1_" enable-background="new    ">
	<g id="logo">
		<g>
			<path fill="#4D9258" d="M20.646,10.979l-1.056-3.8l2.188-0.694c-1.26-2.556-3.924-4.325-7.018-4.325
				c-3.104,0-5.777,1.781-7.03,4.351l2.199,0.668l-1.055,3.8l-1.908-0.488c0.364,3.883,3.732,6.924,7.794,6.924
				s7.43-3.041,7.794-6.924L20.646,10.979z M11.016,12.152c-0.204-0.147-0.248-0.428-0.098-0.627l0.523-0.692
				c0.149-0.199,0.435-0.243,0.641-0.096c0.205,0.147,0.249,0.427,0.099,0.627l-0.524,0.691
				C11.516,12.245,11.21,12.29,11.016,12.152z M11.941,12.812c-0.203-0.147-0.251-0.422-0.102-0.622l0.528-0.697
				c0.148-0.199,0.435-0.242,0.639-0.096c0.205,0.146,0.25,0.428,0.099,0.627l-0.527,0.697
				C12.44,12.908,12.141,12.955,11.941,12.812z M12.867,13.474c-0.203-0.146-0.249-0.428-0.098-0.628l0.523-0.69
				c0.151-0.2,0.438-0.243,0.641-0.096s0.249,0.428,0.098,0.627l-0.523,0.692C13.367,13.566,13.062,13.614,12.867,13.474z
				 M14.957,13.346l-0.524,0.694c-0.14,0.187-0.443,0.238-0.641,0.096c-0.204-0.146-0.249-0.427-0.099-0.626l0.525-0.694
				c0.148-0.198,0.435-0.243,0.641-0.095C15.063,12.865,15.107,13.147,14.957,13.346z M15.439,14.236
				c-0.093,0-0.192-0.021-0.293-0.071c0.152-0.203,0.376-0.472,0.459-0.664l0.104,0.101C16.025,13.912,15.791,14.236,15.439,14.236z
				 M18.636,12.343c-0.179,0.176-0.47,0.176-0.648,0l-1.314-1.287c-0.043-0.042-0.113-0.043-0.158-0.003
				c-0.049,0.042-0.051,0.117-0.004,0.162l1.218,1.192c0.18,0.175,0.18,0.459,0,0.634c-0.179,0.175-0.47,0.175-0.648,0l-0.989-0.969
				c-0.044-0.043-0.115-0.044-0.16-0.001c-0.047,0.043-0.047,0.116-0.002,0.16l0.821,0.804c0.179,0.175,0.179,0.459,0,0.635
				c-0.178,0.175-0.469,0.175-0.647,0l-0.425-0.416c0.11-0.663-0.387-1.202-0.994-1.253c-0.161-0.376-0.521-0.626-0.923-0.661
				c-0.155-0.363-0.509-0.625-0.925-0.661c-0.329-0.768-1.402-0.91-1.916-0.223l-0.286,0.378c-0.292-0.107-0.606-0.197-0.967-0.28
				l0.827-2.978c1.233-0.011,2.206-1.155,3.344-0.451c-0.373,0.451-0.679,0.812-1.14,1.075c-0.368,0.211-0.541,0.624-0.429,1.027
				c0.14,0.507,0.665,0.86,1.278,0.86c0.811,0,1.65-0.651,2.287-1.119c0.375,0.367,2.488,2.399,2.803,2.74
				C18.814,11.883,18.814,12.167,18.636,12.343z M18.957,11.101c0,0-2.029-1.96-2.632-2.551c-0.322-0.314-0.544-0.357-0.916-0.064
				c-0.473,0.372-1.051,0.751-1.479,0.898c-0.838,0.287-1.296-0.411-0.907-0.635c0.792-0.452,1.178-1.104,1.844-1.842
				c0.185-0.205,0.405-0.28,0.63-0.28c0.244,0,0.494,0.089,0.711,0.198c0.985,0.499,1.882,0.838,2.826,0.771l0.842,3.03
				C19.574,10.758,19.271,10.912,18.957,11.101z"/>
		</g>
	</g>
</g>
</svg>
