<?xml version="1.0" encoding="utf-8"?>
<!-- Generator: Adobe Illustrator 16.0.0, SVG Export Plug-In . SVG Version: 6.00 Build 0)  -->
<!DOCTYPE svg PUBLIC "-//W3C//DTD SVG 1.1//EN" "http://www.w3.org/Graphics/SVG/1.1/DTD/svg11.dtd">
<svg version="1.1" xmlns="http://www.w3.org/2000/svg" xmlns:xlink="http://www.w3.org/1999/xlink" x="0px" y="0px" width="29.52px"
	 height="29.76px" viewBox="0 0 29.52 29.76" enable-background="new 0 0 29.52 29.76" xml:space="preserve">
<g id="hand_wrench_1_" enable-background="new    ">
	<g id="hand_wrench">
		<g>
			<path fill="#500D1E" d="M16.379,12.958c0.393,0.262,0.924,0.156,1.186-0.237l1.025-1.538c0.262-0.393,0.154-0.925-0.238-1.187
				c-0.393-0.262-0.924-0.156-1.186,0.237l-1.025,1.539C15.879,12.165,15.986,12.696,16.379,12.958z M17.68,13.587
				c-0.262,0.392-0.156,0.922,0.234,1.183c0.393,0.262,0.922,0.156,1.184-0.237l0.98-1.474c0.264-0.393,0.156-0.922-0.236-1.183
				c-0.391-0.262-0.92-0.156-1.182,0.236L17.68,13.587z M19.07,15.577c-0.24,0.361-0.143,0.851,0.219,1.092s0.85,0.143,1.09-0.219
				l0.906-1.361c0.242-0.361,0.145-0.85-0.217-1.091s-0.85-0.144-1.092,0.219L19.07,15.577z M14.159,15.7
				c1.091,0,1.257-1.546,0.227-1.729c-3.87-0.688-3.667-0.666-3.793-0.666c-0.475,0-0.888,0.339-0.979,0.807l-0.334,2.956
				c-0.046,0.472,0.108,0.881,0.474,1.146c0.365,0.266,1.516,1.086,1.516,1.086s0.246-2.124,0.314-2.734
				c0.069-0.61,0.412-1.032,1.065-1C12.718,15.569,14.041,15.7,14.159,15.7z M23.182,18.741l-2.062-2.063
				c-1.197,1.836-3.266,0.38-2.887-0.984c-0.938-0.185-1.541-0.997-1.34-1.776c-0.811,0-1.758-0.921-1.572-1.806
				c-1.028,0.04-2.282-1.029-1.352-2.588l-0.021-0.021c-0.449-0.448-0.686-1.069-0.652-1.702c0.055-1.035-0.312-2.087-1.102-2.877
				c-0.738-0.738-1.706-1.107-2.673-1.107c-0.419,0-0.837,0.069-1.238,0.207l2.405,2.407c0.055,0.939-1.396,2.391-2.333,2.336
				L5.95,6.359c-0.138,0.4-0.207,0.82-0.207,1.239c0,0.968,0.368,1.936,1.106,2.675c0.79,0.79,1.841,1.158,2.875,1.103
				c0.633-0.034,1.251,0.203,1.701,0.652l0.792,0.792l2.3,0.409c1.303,0.231,1.7,1.785,0.885,2.687l5.254,5.35
				c0.35,0.35,0.807,0.523,1.262,0.523c0.988,0,1.785-0.8,1.785-1.785C23.703,19.547,23.529,19.09,23.182,18.741z M21.832,20.666
				c-0.414,0-0.748-0.336-0.748-0.749c0-0.414,0.334-0.749,0.748-0.749s0.748,0.335,0.748,0.749
				C22.58,20.33,22.246,20.666,21.832,20.666z M14.734,11.259c0.393,0.263,0.924,0.156,1.188-0.237l1.033-1.553
				c0.264-0.394,0.158-0.927-0.236-1.189c-0.393-0.263-0.926-0.156-1.188,0.238l-1.035,1.553
				C14.233,10.464,14.339,10.997,14.734,11.259z M12.691,16.32c-0.214-0.015-0.346,0.123-0.363,0.331l-0.343,3.151
				c0,0,2.091,1.414,2.948,1.986c0.797-1.438,2.02-1.525,2.936-2.248l-2.496-2.574C14.875,16.452,14.1,16.413,12.691,16.32z"/>
		</g>
	</g>
</g>
<g id="SERVICES">
	
		<text transform="matrix(0.9993 0 0 1 0.082 29.3428)" display="none" fill="#500D1E" font-family="'Montserrat-Regular'" font-size="4">CONTACT US</text>
	<g>
		<path fill="#500D1E" d="M4.287,29.267c-0.19-0.066-0.337-0.154-0.441-0.264l0.116-0.229c0.102,0.102,0.236,0.184,0.404,0.246
			s0.341,0.095,0.52,0.095c0.25,0,0.438-0.047,0.564-0.139c0.125-0.092,0.188-0.211,0.188-0.357c0-0.112-0.034-0.202-0.102-0.269
			c-0.068-0.066-0.151-0.118-0.25-0.154c-0.099-0.035-0.236-0.075-0.412-0.117c-0.21-0.054-0.378-0.104-0.504-0.154
			c-0.125-0.05-0.232-0.125-0.322-0.226c-0.089-0.102-0.134-0.239-0.134-0.412c0-0.142,0.037-0.271,0.112-0.387
			c0.075-0.115,0.189-0.208,0.344-0.277c0.155-0.069,0.347-0.104,0.576-0.104c0.16,0,0.316,0.022,0.47,0.066
			s0.286,0.104,0.398,0.182l-0.1,0.236c-0.117-0.077-0.243-0.136-0.376-0.174c-0.133-0.039-0.264-0.059-0.392-0.059
			c-0.245,0-0.43,0.048-0.554,0.143s-0.186,0.217-0.186,0.365c0,0.112,0.034,0.202,0.102,0.271s0.153,0.12,0.256,0.156
			s0.241,0.075,0.414,0.118c0.205,0.05,0.371,0.101,0.498,0.149c0.126,0.05,0.234,0.124,0.322,0.224
			c0.088,0.101,0.132,0.236,0.132,0.406c0,0.142-0.038,0.271-0.114,0.387c-0.076,0.115-0.193,0.207-0.35,0.275
			s-0.35,0.103-0.58,0.103C4.677,29.367,4.478,29.333,4.287,29.267z"/>
		<path fill="#500D1E" d="M8.871,29.087v0.256H6.892v-2.8h1.919v0.256H7.188v0.996h1.447v0.252H7.188v1.04H8.871z"/>
		<path fill="#500D1E" d="M11.796,29.343l-0.639-0.9c-0.072,0.009-0.147,0.013-0.224,0.013h-0.751v0.888H9.885v-2.8h1.047
			c0.357,0,0.637,0.085,0.839,0.256s0.304,0.405,0.304,0.704c0,0.219-0.056,0.403-0.166,0.554c-0.111,0.15-0.269,0.26-0.474,0.326
			l0.684,0.96H11.796z M11.56,28.019c0.147-0.122,0.22-0.294,0.22-0.516c0-0.227-0.073-0.4-0.22-0.522
			c-0.146-0.121-0.358-0.182-0.635-0.182h-0.744v1.404h0.744C11.202,28.203,11.414,28.142,11.56,28.019z"/>
		<path fill="#500D1E" d="M15.422,26.543l-1.239,2.8h-0.292l-1.239-2.8h0.319l1.071,2.432l1.08-2.432H15.422z"/>
		<path fill="#500D1E" d="M16.146,26.543h0.296v2.8h-0.296V26.543z"/>
		<path fill="#500D1E" d="M18.139,29.183c-0.223-0.122-0.397-0.292-0.524-0.51c-0.126-0.218-0.189-0.461-0.189-0.73
			c0-0.269,0.063-0.513,0.189-0.729c0.127-0.218,0.302-0.388,0.526-0.51c0.224-0.123,0.474-0.185,0.751-0.185
			c0.208,0,0.399,0.035,0.576,0.104c0.176,0.069,0.324,0.171,0.447,0.304l-0.188,0.188c-0.219-0.222-0.495-0.332-0.828-0.332
			c-0.221,0-0.422,0.05-0.604,0.151c-0.181,0.102-0.323,0.24-0.426,0.416s-0.153,0.374-0.153,0.592c0,0.219,0.051,0.416,0.153,0.593
			c0.103,0.176,0.245,0.314,0.426,0.416c0.182,0.101,0.383,0.151,0.604,0.151c0.336,0,0.612-0.111,0.828-0.336l0.188,0.188
			c-0.123,0.133-0.272,0.235-0.45,0.306c-0.177,0.07-0.369,0.106-0.577,0.106C18.61,29.367,18.36,29.306,18.139,29.183z"/>
		<path fill="#500D1E" d="M22.845,29.087v0.256h-1.979v-2.8h1.918v0.256h-1.622v0.996h1.446v0.252h-1.446v1.04H22.845z"/>
		<path fill="#500D1E" d="M24.034,29.267c-0.19-0.066-0.338-0.154-0.442-0.264l0.116-0.229c0.102,0.102,0.236,0.184,0.404,0.246
			c0.167,0.062,0.341,0.095,0.52,0.095c0.25,0,0.438-0.047,0.563-0.139c0.125-0.092,0.188-0.211,0.188-0.357
			c0-0.112-0.034-0.202-0.102-0.269c-0.068-0.066-0.151-0.118-0.25-0.154c-0.099-0.035-0.236-0.075-0.412-0.117
			c-0.21-0.054-0.378-0.104-0.503-0.154c-0.126-0.05-0.233-0.125-0.322-0.226c-0.089-0.102-0.134-0.239-0.134-0.412
			c0-0.142,0.037-0.271,0.112-0.387c0.074-0.115,0.188-0.208,0.344-0.277c0.154-0.069,0.346-0.104,0.575-0.104
			c0.16,0,0.316,0.022,0.47,0.066s0.286,0.104,0.397,0.182l-0.1,0.236c-0.117-0.077-0.242-0.136-0.376-0.174
			c-0.133-0.039-0.264-0.059-0.392-0.059c-0.245,0-0.43,0.048-0.554,0.143s-0.186,0.217-0.186,0.365
			c0,0.112,0.034,0.202,0.102,0.271c0.068,0.068,0.153,0.12,0.256,0.156s0.24,0.075,0.414,0.118c0.205,0.05,0.371,0.101,0.497,0.149
			c0.127,0.05,0.234,0.124,0.322,0.224c0.088,0.101,0.132,0.236,0.132,0.406c0,0.142-0.038,0.271-0.114,0.387
			c-0.075,0.115-0.192,0.207-0.35,0.275s-0.351,0.103-0.579,0.103C24.424,29.367,24.225,29.333,24.034,29.267z"/>
	</g>
</g>
</svg>
