<?xml version="1.0" encoding="utf-8"?>
<!-- Generator: Adobe Illustrator 16.0.0, SVG Export Plug-In . SVG Version: 6.00 Build 0)  -->
<!DOCTYPE svg PUBLIC "-//W3C//DTD SVG 1.1//EN" "http://www.w3.org/Graphics/SVG/1.1/DTD/svg11.dtd">
<svg version="1.1" id="LOGO_1_" xmlns="http://www.w3.org/2000/svg" xmlns:xlink="http://www.w3.org/1999/xlink" x="0px" y="0px"
	 width="10.8px" height="5.28px" viewBox="0 0 10.8 5.28" enable-background="new 0 0 10.8 5.28" xml:space="preserve">
<g id="vcard">
	<g>
		<path fill="#500D1E" d="M6.696,3.487c0.366,0,0.614-0.096,0.829-0.224l-0.15-0.219c-0.2,0.122-0.379,0.187-0.651,0.187
			c-0.494,0-0.821-0.313-0.821-0.79c0-0.492,0.364-0.84,0.883-0.84c0.174,0,0.329,0.037,0.439,0.104
			c0.178,0.112,0.283,0.311,0.283,0.539c0,0.191-0.079,0.375-0.199,0.47C7.22,2.786,7.045,2.839,7.099,2.642
			c0,0,0.204-0.758,0.219-0.808h-0.29L7.003,1.921C6.937,1.817,6.868,1.783,6.73,1.783c-0.326,0-0.6,0.348-0.6,0.768
			c0,0.283,0.155,0.467,0.398,0.467c0.138,0,0.236-0.047,0.329-0.156c0.021,0.125,0.111,0.174,0.233,0.174
			c0.165,0,0.332-0.075,0.46-0.204c0.15-0.151,0.233-0.365,0.233-0.599c0-0.519-0.408-0.892-0.98-0.892
			c-0.381,0-0.679,0.112-0.904,0.34C5.703,1.882,5.599,2.148,5.599,2.456c0,0.288,0.102,0.552,0.285,0.735
			C6.079,3.387,6.349,3.487,6.696,3.487z M6.811,2.572c-0.063,0.126-0.149,0.199-0.24,0.199c-0.094,0-0.143-0.069-0.143-0.201
			c0-0.114,0.039-0.261,0.098-0.373c0.062-0.117,0.147-0.179,0.241-0.179c0.086,0,0.143,0.07,0.143,0.171
			C6.91,2.304,6.871,2.456,6.811,2.572z M4.939,2.946C4.625,2.873,4.332,2.809,4.474,2.539c0.431-0.822,0.114-1.262-0.342-1.262
			c-0.464,0-0.774,0.457-0.341,1.262C3.937,2.81,3.633,2.875,3.325,2.946c-0.314,0.073-0.29,0.241-0.29,0.545h2.194
			C5.229,3.187,5.253,3.019,4.939,2.946z M1.755-0.092v5.349h1.684c0.002-0.223,0.182-0.403,0.404-0.403s0.401,0.181,0.404,0.403
			h2.287c0.002-0.223,0.182-0.403,0.403-0.403s0.401,0.181,0.404,0.403h1.684v-5.349H1.755z M8.319,4.543H7.74
			C7.56,4.292,7.268,4.126,6.937,4.126c-0.33,0-0.623,0.165-0.803,0.417H4.646C4.466,4.292,4.173,4.126,3.843,4.126
			S3.219,4.292,3.04,4.543H2.461V0.621h5.858V4.543z"/>
	</g>
</g>
</svg>
